<svg width="49" height="27" viewBox="0 0 49 27" fill="none" xmlns="http://www.w3.org/2000/svg">
<path opacity="0.984" fill-rule="evenodd" clip-rule="evenodd" d="M21.3738 0.727295C22.0292 0.764819 22.6824 0.83007 23.3333 0.923244C20.4278 3.74696 17.505 6.5556 14.5646 9.34904C13.8857 10.3703 13.8531 11.4154 14.4666 12.4842C17.302 15.5347 20.4861 15.9755 24.0191 13.8069C25.5097 12.3522 27.0283 10.9315 28.5749 9.54499C29.2541 12.8289 30.5931 15.8009 32.5919 18.4607C33.3141 19.2972 34.0816 20.081 34.8943 20.8121C34.4893 21.7884 33.7709 22.3926 32.7388 22.6246C32.1836 22.6899 31.6285 22.6899 31.0732 22.6246C30.5648 22.4329 30.0422 22.3676 29.5057 22.4286C29.3307 22.5055 29.1837 22.6198 29.0648 22.7715C27.5589 25.614 25.3219 26.4141 22.3535 25.1719C21.9663 25.0826 21.6071 25.1479 21.2758 25.3679C20.4738 26.7139 19.2981 27.2038 17.7487 26.8375C16.5395 26.6733 15.4618 26.2161 14.5156 25.4658C12.6867 23.5717 10.8579 21.6775 9.029 19.7833C8.78825 19.6303 8.52698 19.5323 8.24521 19.4894C6.02681 19.0522 3.80605 18.6277 1.58294 18.2157C1.15222 18.1442 0.874628 17.8993 0.750162 17.4809C0.684842 13.464 0.684842 9.44702 0.750162 5.43007C0.891872 4.88445 1.25111 4.62315 1.82788 4.64627C4.32864 5.03856 6.82699 5.44682 9.32292 5.87095C9.5515 5.9363 9.78017 5.9363 10.0087 5.87095C11.7761 4.36646 13.703 3.09279 15.7892 2.04995C17.5827 1.2639 19.4442 0.823016 21.3738 0.727295Z" fill="white"/>
<path opacity="0.983" fill-rule="evenodd" clip-rule="evenodd" d="M28.901 0.0416438C30.3737 -0.112158 31.7591 0.162572 33.0575 0.865931C35.4153 2.55233 37.7995 4.2009 40.2105 5.81165C42.5544 5.48368 44.8905 5.07969 47.2185 4.59947C47.7137 4.64398 48.0359 4.90261 48.1851 5.37527C48.2801 9.32467 48.2478 13.2683 48.0884 17.2062C47.8124 17.579 47.4419 17.7567 46.9768 17.7396C43.403 18.216 39.8265 18.6363 36.2473 19.0002C33.7722 16.9313 32.0806 14.3292 31.1726 11.1938C30.771 9.79393 30.4811 8.37169 30.3026 6.92686C29.9718 6.26782 29.4724 6.09007 28.8044 6.3935C27.003 8.03897 25.2309 9.71984 23.488 11.4362C20.9945 13.5291 18.5941 13.4159 16.2866 11.0968C16.2222 10.9351 16.2222 10.7736 16.2866 10.6119C19.56 7.42483 22.8626 4.27315 26.1945 1.15686C27.0329 0.60245 27.9351 0.230745 28.901 0.0416438Z" fill="white"/>
</svg>
